<svg xmlns="http://www.w3.org/2000/svg" width="3000" height="71.3" viewBox="0 0 3000 71.3">
  <defs>
    <style>
      .cls-1 {
        fill: #ff8200;
      }
    </style>
  </defs>
  <g id="Layer_2" data-name="Layer 2">
    <g id="BG_Support" data-name="BG Support">
      <path class="cls-1" d="M3000,33.6V71.3H0V36.14c18.08,0,18.08,7.08,36.16,7.08S54.23,7.74,72.31,7.74s18.08,12.15,36.15,12.15,18.08,8.2,36.16,8.2,18.07,4.75,36.15,4.75S198.84,6.38,216.92,6.38s18.07,13.13,36.15,13.13,18.07,19.55,36.14,19.55S307.29,7.13,325.36,7.13s18.08-5.07,36.15-5.07,18.08,4.28,36.15,4.28,18.07,21.85,36.15,21.85,18.07,3.8,36.14,3.8,18.08-7.29,36.15-7.29S524.18,4.56,542.25,4.56s18.07,25.83,36.15,25.83,18.07-17.11,36.14-17.11,18.08,27.1,36.15,27.1,18.07.23,36.14.23,18.07-16.44,36.15-16.44,18.07,16.97,36.14,16.97,18.07-13.35,36.15-13.35,18.07,11.42,36.14,11.42,18.07-8.38,36.14-8.38,18.07-12.18,36.15-12.18,18.07-13.6,36.14-13.6,18.08,34.59,36.15,34.59,18.07,2.62,36.15,2.62,18.07-5.66,36.14-5.66,18.08-25.84,36.15-25.84,18.07-5.45,36.15-5.45,18.07,7.11,36.14,7.11,18.08,17.42,36.15,17.42,18.07-8.2,36.14-8.2,18.08-4.77,36.15-4.77,18.07,20.74,36.14,20.74S1319.38.93,1337.45.93s18.07,29.77,36.14,29.77,18.08,3.07,36.15,3.07,18.07,2.88,36.14,2.88,18.08-29.97,36.15-29.97,18.07-2.41,36.14-2.41,18.08,10.45,36.15,10.45,18.07,9.42,36.14,9.42,18.08-18.9,36.15-18.9,18.07,24.53,36.14,24.53,18.07-8.02,36.15-8.02,18.07,2.15,36.14,2.15,18.07,11.38,36.14,11.38,18.08-14.73,36.15-14.73,18.07,21.97,36.14,21.97,18.07-30.8,36.15-30.8,18.07,21.32,36.14,21.32,18.07,4.81,36.14,4.81,18.07-2.46,36.15-2.46,18.07-.89,36.14-.89,18.07-11.87,36.14-11.87,18.07,1.31,36.14,1.31S2114.55,20,2132.62,20s18.07-5.01,36.14-5.01,18.07,14.56,36.14,14.56,18.07-22.86,36.14-22.86,18.07,7.26,36.14,7.26,18.08-8.75,36.15-8.75,18.07,7.46,36.14,7.46,18.07-3.03,36.14-3.03,18.07,24.54,36.14,24.54S2439.82,1.6,2457.89,1.6,2475.96.56,2494.03.56s18.07,23.01,36.15,23.01,18.07-15.98,36.14-15.98,18.07,33.66,36.14,33.66,18.07-17.43,36.14-17.43,18.07-1.83,36.14-1.83,18.07,7.86,36.14,7.86S2728.95,0,2747.02,0s18.07,28.73,36.14,28.73,18.07-4.35,36.14-4.35,18.07.15,36.14.15,18.07,7.33,36.14,7.33,18.07-7.68,36.14-7.68,18.07-10.79,36.14-10.79S2981.93,33.6,3000,33.6Z"/>
    </g>
  </g>
</svg>
