<svg xmlns="http://www.w3.org/2000/svg" width="355.763" height="168.26" viewBox="0 0 355.763 168.26">
  <defs>
    <style>
      .cls-1 {
        fill: #cc5817;
      }
    </style>
  </defs>
  <g id="Layer_2" data-name="Layer 2">
    <g id="FRAME_02_CONTENT" data-name="FRAME 02 CONTENT">
      <g>
        <g>
          <path class="cls-1" d="M116.972,129.267a3.38,3.38,0,0,1-2.337-1.23,4.741,4.741,0,0,1-.984-2.46,425.548,425.548,0,0,1-7.381-43.05c-.123-.246-.123.122-.246.368s0,.493,0,.739c-2.583,13.53-4.674,27.06-7.872,40.467-.245.984-.368,2.46-1.229,3.075a2.431,2.431,0,0,1-2.214,1.476,116.264,116.264,0,0,1-14.638-.123c-.984,0-6.518-.492-7.626-.492a1.534,1.534,0,0,1-1.6-.492,6.819,6.819,0,0,1-1.108-2.091,142.92,142.92,0,0,1-3.321-17.589c-.861-6.15-1.845-12.3-2.706-18.451-2.337-15.867-3.567-31.856-4.92-47.847a1.756,1.756,0,0,1,1.23-2.952c2.214-.123,4.428-.492,6.642-.615a100.626,100.626,0,0,1,12.178-.246,1.584,1.584,0,0,1,1.721,1.6,14.156,14.156,0,0,0,.739,2.091c1.352,7.134,5.535,47.233,6.273,54.366,1.845-9.962,4.182-19.925,6.765-29.766.246-1.107,1.475-6.026,2.091-7.011a2.908,2.908,0,0,1,1.106-.984c.493-.123.861-.614,1.353-.738,1.968-.369,12.546-.492,14.638-.738a1.828,1.828,0,0,1,1.845,1.476,1.957,1.957,0,0,1,.984,1.23c1.107,3.322,1.722,6.765,2.583,10.087,2.706,10.332,6.027,20.418,8.61,30.75l2.214-14.391c1.6-10.332,2.583-20.911,4.674-31.12,1.107-5.043,2.337-9.963,2.952-15.006a1.625,1.625,0,0,1,1.6-1.6,2.894,2.894,0,0,1,1.968-.615,39.488,39.488,0,0,0,7.626,0c1.107,0,7.38-.492,8.364-.492a2.037,2.037,0,0,1,1.476.615,2.114,2.114,0,0,1,1.845,2.091,25.192,25.192,0,0,1-.615,2.952c-1.107,5.289-7.257,36.9-8.241,42.313,0,.123-.246.614-.123.738v.492c-2.091,12.3-3.936,24.477-6.4,36.654-.369,1.968-1.23,5.412-3.2,5.781-7.011.984-14.145.369-21.279.492C120.047,129.021,117.464,129.267,116.972,129.267Z"/>
          <path class="cls-1" d="M168.384,54.113a1.742,1.742,0,0,1-.861-1.721c0-1.231,0-8.488-.123-9.718,0-.369-.123-1.845-.123-2.091a1.9,1.9,0,0,1,1.107-1.6,1.966,1.966,0,0,1,1.6-1.107c2.583-.246,15.99-.861,18.573-.738a2.285,2.285,0,0,1,1.6.861,1.848,1.848,0,0,1,1.722,2.091c-.368,1.722-.368,10.578-.245,12.3a1.737,1.737,0,0,1-1.231,1.721,1.937,1.937,0,0,1-2.214,1.353c-5.781,0-11.685.369-17.466.492C169.491,55.958,168.384,55.343,168.384,54.113Zm21.525,74.17c-1.229.123-2.46.246-3.689.246-2.583.246-12.424.861-14.884,0a5.791,5.791,0,0,1-1.845-1.6,11.977,11.977,0,0,1-.246-2.952c0-6.4-.246-45.387-.246-51.784,0-1.107-.246-2.46.369-3.567a2.014,2.014,0,0,1,2.091-1.6,91.275,91.275,0,0,0,15.375-.861,19.689,19.689,0,0,0,2.829-.369c1.353-.491,2.46.862,2.583,2.338.123,1.721.369,11.685.492,13.406.123,5.905.492,11.809.615,17.713.246,6.519,0,13.038,0,19.557,0,1.107,0,7.38-.246,8.61A1.791,1.791,0,0,1,189.909,128.283Z"/>
          <path class="cls-1" d="M207.744,128.037c-1.476.615-2.706-.492-2.706-2.091.123-9.963.492-19.926.615-29.889,0-6.643-.123-46.618-.246-53.26,0-.984,0-3.2.738-3.813.861-.615,4.182-.615,5.166-.738,2.706-.369,5.289-.615,7.872-.738,1.722,0,4.92-.246,5.781,1.23a6.166,6.166,0,0,1,.984,1.722c.246,4.551-.123,30.136-.123,34.686-.123,12.055.246,24.109.492,36.163,0,1.968.369,12.792.246,14.76a2.005,2.005,0,0,1-1.353,1.6c-.492.123-.861.615-1.476.738C221.52,128.529,209.958,128.283,207.744,128.037Z"/>
          <path class="cls-1" d="M251.776,127.668a21.2,21.2,0,0,1-9.1-7.011c-3.567-4.674-5.412-10.7-6.4-16.6A44.053,44.053,0,0,1,241.2,76.13a25.87,25.87,0,0,1,11.44-10.946c6.887-2.953,15.989-2.337,22.631,1.106,0-8.241-.369-16.605-.615-24.846a4.417,4.417,0,0,1,.246-2.214c.246-.369.862-.615,1.231-.984.614-.615,3.2-.984,4.181-1.107,3.322-.615,6.889,0,10.209.369,1.846.246,4.92.369,5.166,2.214.123.492-.368,2.46-.123,2.829a3.591,3.591,0,0,1,.246,1.107c.123,6.151-1.229,42.559-1.352,48.709-.369,10.209-.369,20.418-.615,30.627a4.008,4.008,0,0,1-1.23,2.829,1.762,1.762,0,0,1-1.6,2.091c-.862.123-5.29-.492-6.028-.492-.738.123-5.166.492-5.9.492a2.087,2.087,0,0,1-3.074-1.353c-.369-1.23-.493-7.257-.616-8.487a37.193,37.193,0,0,1-10.332,8.733A15.746,15.746,0,0,1,251.776,127.668Zm15.252-22.263a23.527,23.527,0,0,0,4.8-6.642c.492-.861.984-1.845,1.6-2.829,0-.984-.123-7.257-.246-8.241,0-.246-.37-.738-.493-.985-1.476-2.09-6.273-4.181-8.856-3.813a5.076,5.076,0,0,0-2.583,1.23,11.513,11.513,0,0,0-2.706,4.552,19.4,19.4,0,0,0,0,14.391,6.494,6.494,0,0,0,3.936,3.69A5.228,5.228,0,0,0,267.028,105.405Z"/>
        </g>
        <path class="cls-1" d="M352.379,129.17c-1.61-4.37-3.13-8.5-3.13-13a93.836,93.836,0,0,1,1.06-15.16,111.073,111.073,0,0,0,1.26-17.94c0-11.45-4.43-17.73-7.67-22.31-2.58-3.67-4.01-5.68-4.01-10.78,0-3.98,2.69-7.77,5.53-11.78,2.71-3.81,5.51-7.75,6.59-12.65,1.04-4.7.75-11.72-6.5-18.5C340.5,2.37,335.059,0,329.359,0c-6.03,0-11.03,2.6-15.44,4.9-4.39,2.29-8.18,4.26-13.02,4.26-8.74,0-12.99-.1-17.48-.2-4.42-.11-8.98-.21-17.95-.21a90.047,90.047,0,0,0-19.61,1.89,70.323,70.323,0,0,1-15.82,1.53,37.52,37.52,0,0,1-14.49-2.48,56.807,56.807,0,0,0-20.93-3.54,104.331,104.331,0,0,0-19.34,1.59A82.575,82.575,0,0,1,159.2,9.07c-6.46,0-9.14-1.36-13.18-3.41a43.5,43.5,0,0,0-22.25-5.6c-12.07,0-18.7,4.77-23.54,8.25-3.89,2.79-6.24,4.48-11.88,4.48-9.11,0-13.74.24-18.22.47-4.42.23-8.6.44-17.2.44-4.53,0-8.13-2.5-12.3-5.4-4.55-3.17-9.71-6.76-16.51-6.76-5.22,0-10.22,2.19-14.85,6.52-12.23,11.42-9.51,22.23-7.53,30.12a46.045,46.045,0,0,1,1.84,11.8c0,8.68.36,13.09.71,17.35.32,4.05.63,7.88.63,15.75a94.255,94.255,0,0,1-1.05,15.17,112.649,112.649,0,0,0-1.24,17.92,55.1,55.1,0,0,1-1.39,11.39c-1.64,8.25-3.67,18.51,8.57,29.95,3.61,3.38,9.31,7.87,17.02,7.87,5.64,0,10.17-2.37,14.54-4.67a49.3,49.3,0,0,1,12.96-5.16,33.714,33.714,0,0,1,7.24-.93,27.422,27.422,0,0,1,7.87,1.4,64.122,64.122,0,0,0,18.93,2.75,126.436,126.436,0,0,0,19-1.24,108.42,108.42,0,0,1,16.42-1.07,34.235,34.235,0,0,1,14.24,2.67,53.92,53.92,0,0,0,21.19,3.91,179.664,179.664,0,0,0,18.6-.83,162.933,162.933,0,0,1,16.82-.75c8.8,0,13.27.05,17.6.11,4.38.05,8.91.1,17.83.1a54.939,54.939,0,0,0,21.11-3.8,35.283,35.283,0,0,1,14.31-2.6,78.342,78.342,0,0,1,15.99,1.39,99.153,99.153,0,0,0,19.42,1.68c4.86,0,9.21,2.24,13.81,4.6,4.86,2.49,10.36,5.32,16.76,5.32,5.82,0,11.25-2.32,16.15-6.91C359.969,149.82,355.4,137.39,352.379,129.17ZM340.8,154.05c-3.03,2.83-6.09,4.21-9.33,4.21-3.98,0-7.97-2.05-12.19-4.22-5.2-2.67-11.1-5.7-18.38-5.7a89.718,89.718,0,0,1-17.7-1.53,87.535,87.535,0,0,0-17.71-1.54,44.9,44.9,0,0,0-17.71,3.2,45.167,45.167,0,0,1-17.71,3.2c-8.84,0-13.34-.05-17.69-.1-4.37-.05-8.85-.11-17.74-.11a171.256,171.256,0,0,0-17.71.79,168.5,168.5,0,0,1-17.71.79,43.948,43.948,0,0,1-17.71-3.29,44,44,0,0,0-17.72-3.29,117.652,117.652,0,0,0-17.71,1.16,117.2,117.2,0,0,1-17.71,1.15,54.528,54.528,0,0,1-16.27-2.39,36.19,36.19,0,0,0-10.53-1.76,43.421,43.421,0,0,0-9.4,1.17,59.269,59.269,0,0,0-15.44,6.06c-4.17,2.19-6.88,3.53-9.9,3.53-3.22,0-6.36-1.6-10.19-5.18-8.18-7.64-7.1-13.11-5.59-20.69a64.706,64.706,0,0,0,1.58-13.34,102.405,102.405,0,0,1,1.15-16.54,104.623,104.623,0,0,0,1.14-16.55c0-8.27-.34-12.47-.67-16.54-.34-4.27-.67-8.29-.67-16.56a54.98,54.98,0,0,0-2.14-14.24c-1.82-7.25-3.26-12.98,4.65-20.38,2.76-2.57,5.39-3.82,8.03-3.82,3.66,0,6.97,2.3,10.8,4.96,4.85,3.38,10.34,7.2,18.01,7.2,8.87,0,13.17-.22,17.71-.46,4.37-.22,8.87-.45,17.71-.45,8.86,0,13.36-3.24,17.71-6.36s8.86-6.37,17.71-6.37,13.36,2.29,17.71,4.51c4.56,2.32,8.86,4.5,17.72,4.5a92.888,92.888,0,0,0,17.71-1.46,93.564,93.564,0,0,1,17.71-1.46,46.922,46.922,0,0,1,17.71,3.01,47.6,47.6,0,0,0,17.71,3.01,79.654,79.654,0,0,0,17.72-1.71,80.5,80.5,0,0,1,17.71-1.71c8.86,0,13.36.1,17.71.2,4.56.11,8.86.21,17.72.21,7.29,0,12.79-2.86,17.64-5.39,3.72-1.94,7.24-3.77,10.82-3.77,3.13,0,6.18,1.43,9.32,4.36,4.13,3.86,4.01,7.01,3.56,9.04-.64,2.91-2.65,5.74-4.97,9.01-3.46,4.87-7.38,10.4-7.38,17.57,0,8.27,2.97,12.48,5.84,16.54s5.84,8.28,5.84,16.55a101.127,101.127,0,0,1-1.16,16.55,102.834,102.834,0,0,0-1.16,16.55c0,6.28,1.99,11.68,3.74,16.45C346.289,141.59,347.789,147.51,340.8,154.05Z"/>
      </g>
    </g>
  </g>
</svg>
