<svg xmlns="http://www.w3.org/2000/svg" width="350.808" height="171.88" viewBox="0 0 350.808 171.88">
  <defs>
    <style>
      .cls-1 {
        fill: #ff8200;
      }
    </style>
  </defs>
  <g id="Layer_2" data-name="Layer 2">
    <g id="FRAME_02_CONTENT" data-name="FRAME 02 CONTENT">
      <g>
        <g>
          <path class="cls-1" d="M65.273,130.032c-.369,0-2.214-.247-2.706-.247a1.766,1.766,0,0,1-2.091-1.353,18.173,18.173,0,0,1,.123-2.583c1.23-22.386.369-44.649.615-67.035.123-2.46.738-13.284,0-15.744a1.682,1.682,0,0,1,.246-1.722A1.757,1.757,0,0,1,63.8,39.626a1.8,1.8,0,0,1,.492.246c2.952.738,19.557-1.722,22.387-.738a4,4,0,0,1,1.6,1.23c.492.861,1.845,4.92,2.214,5.658,2.583,7.749,5.043,15.5,7.5,23.247,2.829,8.856,6.15,17.466,9.1,26.322,3.2-9.471,6.643-18.819,9.717-28.29,2.829-8.979,5.535-18.081,8.98-26.814a3.182,3.182,0,0,1,2.583-1.845c2.214-.123,14.022.861,16.359.984.984,0,4.428.369,5.412-.246a1.761,1.761,0,0,1,2.583,1.6,2.764,2.764,0,0,1,.246,2.214c-.369,1.722-.123,10.824-.123,12.546.492,21.648-.369,43.173.492,64.821,0,.984.492,6.4.369,7.381a1.811,1.811,0,0,1-2.337,1.6c-.984.246-6.027.37-7.011.493a89.16,89.16,0,0,1-14.022.369,1.751,1.751,0,0,1-1.6-1.107,1.857,1.857,0,0,1-1.108-1.722c.616-13.531.37-27.184.124-40.714-1.353,3.444-10.086,24.231-11.562,27.676a4.931,4.931,0,0,1-1.23,2.213,1.7,1.7,0,0,1-1.353,1.476c-.984.247-4.429-.123-5.166.37-.861.737-2.338.246-3.567.123-.739-.123-3.937,0-4.552-.246a1.966,1.966,0,0,1-1.107-1.477c0-.123-.492-.615-.615-.738-1.6-3.567-10.7-25.461-12.177-29.151-.246,13.53-.492,27.183.123,40.714a1.594,1.594,0,0,1-1.107,1.721,1.958,1.958,0,0,1-1.476,1.107C77.7,131.138,71.546,130.4,65.273,130.032Z"/>
          <path class="cls-1" d="M166.256,54.878a1.742,1.742,0,0,1-.862-1.722c0-1.23,0-8.487-.122-9.717,0-.369-.123-1.845-.123-2.091a1.893,1.893,0,0,1,1.107-1.6,1.966,1.966,0,0,1,1.6-1.107c2.583-.246,15.989-.861,18.572-.738a2.286,2.286,0,0,1,1.6.861,1.848,1.848,0,0,1,1.722,2.091c-.369,1.722-.369,10.578-.246,12.3a1.738,1.738,0,0,1-1.23,1.722,1.937,1.937,0,0,1-2.214,1.353c-5.781,0-11.685.369-17.466.492C167.363,56.723,166.256,56.108,166.256,54.878Zm21.525,74.17c-1.23.123-2.46.246-3.69.246-2.583.245-12.423.861-14.883,0a5.8,5.8,0,0,1-1.845-1.6,11.985,11.985,0,0,1-.246-2.953c0-6.4-.246-45.387-.246-51.783,0-1.107-.246-2.46.368-3.567a2.015,2.015,0,0,1,2.092-1.6,91.38,91.38,0,0,0,15.375-.861,19.689,19.689,0,0,0,2.829-.369c1.353-.492,2.46.861,2.583,2.337.123,1.722.369,11.685.492,13.407.123,5.9.492,11.808.615,17.712.246,6.519,0,13.038,0,19.557,0,1.107,0,7.38-.246,8.61A1.791,1.791,0,0,1,187.781,129.048Z"/>
          <path class="cls-1" d="M205.615,128.8c-1.476.614-2.706-.493-2.706-2.091.123-9.964.493-19.927.616-29.89,0-6.642-.123-46.617-.246-53.259,0-.984,0-3.2.737-3.813.862-.615,4.182-.615,5.166-.738,2.706-.369,5.289-.615,7.872-.738,1.723,0,4.92-.246,5.782,1.23a6.166,6.166,0,0,1,.984,1.722c.246,4.551-.123,30.135-.123,34.686-.123,12.054.246,24.108.492,36.163,0,1.967.368,12.792.246,14.759a2,2,0,0,1-1.353,1.6c-.492.123-.862.616-1.476.739C219.391,129.294,207.83,129.048,205.615,128.8Z"/>
          <path class="cls-1" d="M249.648,128.432a21.207,21.207,0,0,1-9.1-7.01c-3.567-4.675-5.412-10.7-6.4-16.606A44.049,44.049,0,0,1,239.07,76.9a25.88,25.88,0,0,1,11.439-10.947C257.4,63,266.5,63.611,273.141,67.055c0-8.241-.369-16.605-.615-24.846a4.417,4.417,0,0,1,.246-2.214c.246-.369.861-.615,1.23-.984.615-.615,3.2-.984,4.182-1.107,3.321-.615,6.888,0,10.209.369,1.845.246,4.92.369,5.166,2.214.123.492-.369,2.46-.123,2.829a3.591,3.591,0,0,1,.246,1.107c.123,6.15-1.23,42.558-1.353,48.708-.369,10.209-.369,20.419-.614,30.628a4.009,4.009,0,0,1-1.231,2.829,1.762,1.762,0,0,1-1.6,2.091c-.861.123-5.289-.493-6.027-.493-.738.123-5.166.493-5.9.493a2.088,2.088,0,0,1-3.075-1.353c-.369-1.23-.492-7.257-.615-8.487a37.193,37.193,0,0,1-10.332,8.733A15.745,15.745,0,0,1,249.648,128.432ZM264.9,106.169a23.513,23.513,0,0,0,4.8-6.642c.492-.861.984-1.845,1.6-2.829,0-.984-.123-7.257-.246-8.241,0-.246-.369-.738-.492-.984-1.476-2.091-6.273-4.182-8.856-3.813a5.064,5.064,0,0,0-2.583,1.23,11.509,11.509,0,0,0-2.706,4.551,19.4,19.4,0,0,0,0,14.391,6.494,6.494,0,0,0,3.936,3.69A5.228,5.228,0,0,0,264.9,106.169Z"/>
        </g>
        <path class="cls-1" d="M350.248,26.06c1.18-4.8,1.07-11.97-6.17-18.88C339.088,2.42,333.6,0,327.768,0c-5.95,0-11.01,2.5-15.47,4.7-4.29,2.12-8.33,4.11-13.1,4.11a33.231,33.231,0,0,1-13.93-2.63,52.854,52.854,0,0,0-20.96-3.91,47.65,47.65,0,0,0-21.44,4.63,27.872,27.872,0,0,1-13.44,2.97c-8.48,0-12.6-.2-16.96-.41-4.41-.22-8.97-.44-17.93-.44a42.443,42.443,0,0,1-14.57-2.19,61.928,61.928,0,0,0-20.32-3.03,46.583,46.583,0,0,0-21.54,4.79,26.989,26.989,0,0,1-13.34,3.04,126.478,126.478,0,0,0-18.72,1.21,108.512,108.512,0,0,1-16.16,1.04c-8.49,0-12.61-.19-16.98-.39-4.4-.21-8.95-.42-17.9-.42-4.54,0-8.01-2.18-12.03-4.72-4.29-2.7-9.16-5.77-15.45-5.77-5.36,0-10.49,2.3-15.25,6.85-12.86,12.28-5.19,24.33-1.5,30.12,2.47,3.88,4.6,7.22,4.6,11.39,0,7.96-.28,11.83-.58,15.92-.31,4.27-.63,8.69-.63,17.37,0,5.47-1.38,7.69-3.66,11.36-2.82,4.54-6.69,10.75-6.69,21.93a52.85,52.85,0,0,1-1.93,12.61c-2.1,8.78-4.97,20.79,7.12,32.33,6.74,6.43,13.38,9.42,20.91,9.42,5.86,0,11.38-1.82,17.77-3.93,3.23-1.06,6.89-2.27,11.02-3.38,6.26-1.67,9.15-1.89,10.96-1.89a44.723,44.723,0,0,1,5.37.46,107.53,107.53,0,0,0,14.87.99c8.36,0,12.43.29,16.73.59,4.46.32,9.07.65,18.15.65a136.9,136.9,0,0,0,18.62-1.1,118.835,118.835,0,0,1,16.27-.96c8.38,0,12.45.28,16.76.58,4.45.3,9.06.62,18.12.62,11.3,0,17.38-3.36,22.28-6.05,3.89-2.15,6.46-3.57,12.61-3.57,8.66,0,13.07.05,17.33.1,4.31.04,8.77.09,17.55.09,8.46,0,12.57.21,16.93.43,4.41.23,8.97.46,17.95.46,4.61,0,7.94,1.95,11.8,4.21,4.03,2.37,8.6,5.05,14.49,5.04,5.5,0,10.6-2.31,15.59-7.08,12.11-11.56,9.11-21.67,6.92-29.06a37.742,37.742,0,0,1-2.08-11.56,78.831,78.831,0,0,1,1.22-15.06,100.917,100.917,0,0,0,1.46-18.24c0-11.36-4.19-17.63-7.26-22.21-2.5-3.73-3.88-5.79-3.88-11.08,0-3.99,2.85-7.93,5.87-12.09C346.138,34.96,349.048,30.96,350.248,26.06Zm-9.71-2.39c-.74,3-2.95,6.06-5.3,9.3-3.64,5.03-7.77,10.73-7.77,17.96,0,8.33,2.71,12.37,5.57,16.65,2.74,4.09,5.57,8.32,5.57,16.64a90.208,90.208,0,0,1-1.34,16.65,89.109,89.109,0,0,0-1.34,16.65,47.09,47.09,0,0,0,2.49,14.4c2.01,6.76,3.46,11.65-4.23,18.99-4.06,3.87-6.91,4.31-8.69,4.31-3.18.01-6.08-1.69-9.43-3.66-4.47-2.62-9.53-5.59-16.86-5.59-8.73,0-13.16-.22-17.44-.44-4.48-.23-8.72-.45-17.44-.45-8.74,0-13.16-.05-17.44-.09s-8.71-.1-17.44-.1-13.16,2.44-17.44,4.81c-4.49,2.47-8.73,4.81-17.45,4.81s-13.14-.31-17.43-.6c-4.49-.31-8.73-.6-17.45-.6a129.262,129.262,0,0,0-17.45,1.03,126.5,126.5,0,0,1-17.44,1.03c-8.71,0-13.15-.31-17.43-.62-4.49-.32-8.73-.62-17.45-.62a97.01,97.01,0,0,1-13.63-.91,51.645,51.645,0,0,0-6.61-.54c-2.58,0-6.21.27-13.55,2.24-4.41,1.18-8.21,2.43-11.56,3.54-5.8,1.91-10.38,3.42-14.64,3.42-3.27,0-7.82-.75-14-6.66-7.4-7.05-6.57-13.31-4.31-22.77a61.147,61.147,0,0,0,2.21-14.93c0-8.32,2.63-12.55,5.18-16.64s5.17-8.33,5.17-16.65.31-12.55.61-16.64.6-8.33.6-16.65c0-7.08-3.27-12.22-6.16-16.76-4.9-7.7-5.99-11.83-.03-17.52,2.87-2.74,5.6-4.08,8.34-4.08,3.4,0,6.52,1.96,10.12,4.23,4.66,2.94,9.94,6.26,17.36,6.26,8.72,0,13.16.21,17.44.41,4.49.2,8.72.4,17.44.4a118.081,118.081,0,0,0,17.44-1.12,115.775,115.775,0,0,1,17.44-1.13,36.845,36.845,0,0,0,17.44-3.92,37.016,37.016,0,0,1,17.44-3.91,51.747,51.747,0,0,1,17.45,2.61,51.936,51.936,0,0,0,17.44,2.61c8.72,0,13.15.22,17.44.42,4.49.22,8.73.43,17.45.43a37.838,37.838,0,0,0,17.44-3.8,37.838,37.838,0,0,1,17.44-3.8,43,43,0,0,1,17.45,3.27,42.9,42.9,0,0,0,17.44,3.27c7.1,0,12.64-2.73,17.52-5.14,3.82-1.88,7.43-3.67,11.05-3.67,3.22,0,6.29,1.45,9.4,4.41C341.268,18.32,341.058,21.57,340.538,23.67Z"/>
      </g>
    </g>
  </g>
</svg>
