<svg xmlns="http://www.w3.org/2000/svg" width="350.808" height="171.88" viewBox="0 0 350.808 171.88">
  <defs>
    <style>
      .cls-1 {
        font-size: 123px;
        font-family: Cat-Comic, Cat Comic;
      }

      .cls-1, .cls-2 {
        fill: #ff8200;
      }
    </style>
  </defs>
  <g id="Layer_2" data-name="Layer 2">
    <g id="FRAME_02_CONTENT" data-name="FRAME 02 CONTENT">
      <g>
        <text class="cls-1" transform="translate(53.834 128.679)">Mild</text>
        <path class="cls-2" d="M350.248,26.06c1.18-4.8,1.07-11.97-6.17-18.88C339.088,2.42,333.6,0,327.768,0c-5.95,0-11.01,2.5-15.47,4.7-4.29,2.12-8.33,4.11-13.1,4.11a33.231,33.231,0,0,1-13.93-2.63,52.854,52.854,0,0,0-20.96-3.91,47.65,47.65,0,0,0-21.44,4.63,27.872,27.872,0,0,1-13.44,2.97c-8.48,0-12.6-.2-16.96-.41-4.41-.22-8.97-.44-17.93-.44a42.443,42.443,0,0,1-14.57-2.19,61.928,61.928,0,0,0-20.32-3.03,46.583,46.583,0,0,0-21.54,4.79,26.989,26.989,0,0,1-13.34,3.04,126.478,126.478,0,0,0-18.72,1.21,108.512,108.512,0,0,1-16.16,1.04c-8.49,0-12.61-.19-16.98-.39-4.4-.21-8.95-.42-17.9-.42-4.54,0-8.01-2.18-12.03-4.72-4.29-2.7-9.16-5.77-15.45-5.77-5.36,0-10.49,2.3-15.25,6.85-12.86,12.28-5.19,24.33-1.5,30.12,2.47,3.88,4.6,7.22,4.6,11.39,0,7.96-.28,11.83-.58,15.92-.31,4.27-.63,8.69-.63,17.37,0,5.47-1.38,7.69-3.66,11.36-2.82,4.54-6.69,10.75-6.69,21.93a52.85,52.85,0,0,1-1.93,12.61c-2.1,8.78-4.97,20.79,7.12,32.33,6.74,6.43,13.38,9.42,20.91,9.42,5.86,0,11.38-1.82,17.77-3.93,3.23-1.06,6.89-2.27,11.02-3.38,6.26-1.67,9.15-1.89,10.96-1.89a44.723,44.723,0,0,1,5.37.46,107.53,107.53,0,0,0,14.87.99c8.36,0,12.43.29,16.73.59,4.46.32,9.07.65,18.15.65a136.9,136.9,0,0,0,18.62-1.1,118.835,118.835,0,0,1,16.27-.96c8.38,0,12.45.28,16.76.58,4.45.3,9.06.62,18.12.62,11.3,0,17.38-3.36,22.28-6.05,3.89-2.15,6.46-3.57,12.61-3.57,8.66,0,13.07.05,17.33.1,4.31.04,8.77.09,17.55.09,8.46,0,12.57.21,16.93.43,4.41.23,8.97.46,17.95.46,4.61,0,7.94,1.95,11.8,4.21,4.03,2.37,8.6,5.05,14.49,5.04,5.5,0,10.6-2.31,15.59-7.08,12.11-11.56,9.11-21.67,6.92-29.06a37.742,37.742,0,0,1-2.08-11.56,78.831,78.831,0,0,1,1.22-15.06,100.917,100.917,0,0,0,1.46-18.24c0-11.36-4.19-17.63-7.26-22.21-2.5-3.73-3.88-5.79-3.88-11.08,0-3.99,2.85-7.93,5.87-12.09C346.138,34.96,349.048,30.96,350.248,26.06Zm-9.71-2.39c-.74,3-2.95,6.06-5.3,9.3-3.64,5.03-7.77,10.73-7.77,17.96,0,8.33,2.71,12.37,5.57,16.65,2.74,4.09,5.57,8.32,5.57,16.64a90.208,90.208,0,0,1-1.34,16.65,89.109,89.109,0,0,0-1.34,16.65,47.09,47.09,0,0,0,2.49,14.4c2.01,6.76,3.46,11.65-4.23,18.99-4.06,3.87-6.91,4.31-8.69,4.31-3.18.01-6.08-1.69-9.43-3.66-4.47-2.62-9.53-5.59-16.86-5.59-8.73,0-13.16-.22-17.44-.44-4.48-.23-8.72-.45-17.44-.45-8.74,0-13.16-.05-17.44-.09s-8.71-.1-17.44-.1-13.16,2.44-17.44,4.81c-4.49,2.47-8.73,4.81-17.45,4.81s-13.14-.31-17.43-.6c-4.49-.31-8.73-.6-17.45-.6a129.262,129.262,0,0,0-17.45,1.03,126.5,126.5,0,0,1-17.44,1.03c-8.71,0-13.15-.31-17.43-.62-4.49-.32-8.73-.62-17.45-.62a97.01,97.01,0,0,1-13.63-.91,51.645,51.645,0,0,0-6.61-.54c-2.58,0-6.21.27-13.55,2.24-4.41,1.18-8.21,2.43-11.56,3.54-5.8,1.91-10.38,3.42-14.64,3.42-3.27,0-7.82-.75-14-6.66-7.4-7.05-6.57-13.31-4.31-22.77a61.147,61.147,0,0,0,2.21-14.93c0-8.32,2.63-12.55,5.18-16.64s5.17-8.33,5.17-16.65.31-12.55.61-16.64.6-8.33.6-16.65c0-7.08-3.27-12.22-6.16-16.76-4.9-7.7-5.99-11.83-.03-17.52,2.87-2.74,5.6-4.08,8.34-4.08,3.4,0,6.52,1.96,10.12,4.23,4.66,2.94,9.94,6.26,17.36,6.26,8.72,0,13.16.21,17.44.41,4.49.2,8.72.4,17.44.4a118.081,118.081,0,0,0,17.44-1.12,115.775,115.775,0,0,1,17.44-1.13,36.845,36.845,0,0,0,17.44-3.92,37.016,37.016,0,0,1,17.44-3.91,51.747,51.747,0,0,1,17.45,2.61,51.936,51.936,0,0,0,17.44,2.61c8.72,0,13.15.22,17.44.42,4.49.22,8.73.43,17.45.43a37.838,37.838,0,0,0,17.44-3.8,37.838,37.838,0,0,1,17.44-3.8,43,43,0,0,1,17.45,3.27,42.9,42.9,0,0,0,17.44,3.27c7.1,0,12.64-2.73,17.52-5.14,3.82-1.88,7.43-3.67,11.05-3.67,3.22,0,6.29,1.45,9.4,4.41C341.268,18.32,341.058,21.57,340.538,23.67Z"/>
      </g>
    </g>
  </g>
</svg>
