<svg xmlns="http://www.w3.org/2000/svg" width="652.627" height="171.7" viewBox="0 0 652.627 171.7">
  <defs>
    <style>
      .cls-1 {
        font-size: 123px;
        font-family: Cat-Comic, Cat Comic;
      }

      .cls-1, .cls-2 {
        fill: #cc3619;
      }
    </style>
  </defs>
  <g id="Layer_2" data-name="Layer 2">
    <g id="FRAME_02_CONTENT" data-name="FRAME 02 CONTENT">
      <g>
        <text class="cls-1" transform="translate(73.892 127.759)">EXTREME</text>
        <path class="cls-2" d="M648.547,116.79a50.7,50.7,0,0,1,1.75-14.29,69.96,69.96,0,0,0,2.33-19.05c0-11.58-4.58-17.91-7.93-22.53-2.66-3.69-4.13-5.71-4.13-10.81,0-4.13,2.39-7.76,5.16-11.96,2.56-3.88,5.21-7.89,6.1-12.86.84-4.64.31-11.58-6.96-18.24C639.7,2.31,634.357,0,628.557,0c-6.1,0-11.15,2.65-15.6,4.98s-8.32,4.36-13.36,4.36a71.774,71.774,0,0,1-16.26-1.58,91.421,91.421,0,0,0-20.09-1.96,56.37,56.37,0,0,1-15.83-1.92,76.256,76.256,0,0,0-20.53-2.48,46.086,46.086,0,0,0-22.51,5.36c-4.08,1.96-7.03,3.38-13.84,3.38-6.56,0-9.29-1.48-13.43-3.71C472.067,3.71,465.8.32,454.177.32a116.311,116.311,0,0,0-19.63,1.44,98.343,98.343,0,0,1-16.72,1.22c-8.96,0-13.31-.11-17.92-.23-4.53-.11-9.21-.23-18.43-.23a76.759,76.759,0,0,0-20.5,2.45,57.393,57.393,0,0,1-15.85,1.9,36.222,36.222,0,0,1-14.77-2.7A55.431,55.431,0,0,0,308.777.28a88.353,88.353,0,0,0-20.16,2.04,68.7,68.7,0,0,1-16.19,1.65,91.212,91.212,0,0,1-16.62-1.31,110.21,110.21,0,0,0-19.73-1.56,97.174,97.174,0,0,0-19.97,1.82,76.341,76.341,0,0,1-16.38,1.5c-8.72,0-12.95-.32-17.43-.65-4.65-.35-9.46-.72-18.92-.72-11.51,0-17.75,3.22-22.76,5.8-4.02,2.07-6.93,3.57-13.59,3.57a37.374,37.374,0,0,1-14.85-2.63,56.454,56.454,0,0,0-21.5-3.78c-9.06,0-13.59-.02-18.12-.05-4.56-.02-9.12-.05-18.23-.05a39.287,39.287,0,0,1-12.68-2.32A36.941,36.941,0,0,0,30.367,1.4c-6.5,0-12.45,2.68-18.74,8.45-12.88,11.82-7.18,23.03-4.12,29.05,1.87,3.66,3.47,6.83,3.47,11.21,0,8.61.25,12.99.48,17.23.23,4.14.45,8.06.45,16.11,0,8.34,0,12.51.01,16.68v16.66c0,4.19-2.6,8.38-5.36,12.81-4.39,7.05-12.57,20.18.64,32.29,7.29,6.69,14.38,9.81,22.29,9.81,6.03,0,11.88-1.79,18.65-3.85,2.98-.91,6.36-1.94,10.09-2.93a77.224,77.224,0,0,0,16.74-6.46c4.68-2.36,7.27-3.65,15.73-3.65,6.59,0,9.32,1.46,13.47,3.67,5.03,2.68,11.29,6.02,22.88,6.02,11.94,0,18.32-3.95,23.44-7.13,4.02-2.48,6.67-4.13,12.92-4.13a100.083,100.083,0,0,1,16.75,1.21,118.784,118.784,0,0,0,19.6,1.41,46.77,46.77,0,0,1,15.4,2.24,66.054,66.054,0,0,0,20.95,3.02,95.465,95.465,0,0,0,19.99-1.85,76.06,76.06,0,0,1,16.36-1.51,51.163,51.163,0,0,1,15.61,2.08,70.878,70.878,0,0,0,20.74,2.74,151.827,151.827,0,0,0,19.26-1.06,134.3,134.3,0,0,1,17.09-.93,67.8,67.8,0,0,0,20.87-2.91,48.362,48.362,0,0,1,15.48-2.18c6.72,0,9.64,1.47,13.69,3.5a48.681,48.681,0,0,0,45.28.09c4.06-2.02,6.99-3.47,13.74-3.47a166.239,166.239,0,0,0,19.15-.95,148.267,148.267,0,0,1,17.19-.85c6.13,0,8.61,1.62,12.73,4.29,4.89,3.17,11.57,7.51,23.62,7.51a50.286,50.286,0,0,0,22.08-4.63,30.292,30.292,0,0,1,14.27-3.06,70.786,70.786,0,0,1,16.25,1.6,91.336,91.336,0,0,0,20.11,1.97,43.871,43.871,0,0,1,12.45,1.97,38.834,38.834,0,0,0,10.37,1.77c6.71,0,12.67-2.72,19.31-8.81,12.43-11.41,10.19-20.87,8.38-28.48A44.9,44.9,0,0,1,648.547,116.79Zm-7.96-16.67a60.527,60.527,0,0,0-2.04,16.67,55.069,55.069,0,0,0,1.85,13.47c1.63,6.84,2.7,11.36-5.41,18.8-5.93,5.44-9.67,6.18-12.55,6.18a29.98,29.98,0,0,1-7.76-1.43,53.971,53.971,0,0,0-15.06-2.31,81.269,81.269,0,0,1-18.18-1.78,80.238,80.238,0,0,0-18.18-1.79,39.891,39.891,0,0,0-18.17,3.85,40.459,40.459,0,0,1-18.18,3.84c-9.08,0-13.7-3-18.17-5.9-4.68-3.03-9.09-5.9-18.18-5.9a159.359,159.359,0,0,0-18.17.9,157.77,157.77,0,0,1-18.17.9c-9.09,0-13.71,2.29-18.18,4.51s-9.09,4.5-18.17,4.5-13.71-2.32-18.18-4.56-9.09-4.57-18.18-4.57a58.249,58.249,0,0,0-18.17,2.54,57.91,57.91,0,0,1-18.18,2.55,143.984,143.984,0,0,0-18.17.99,140.568,140.568,0,0,1-18.18,1,61.046,61.046,0,0,1-18.18-2.41,61.248,61.248,0,0,0-18.17-2.41,85.413,85.413,0,0,0-18.17,1.68,85.961,85.961,0,0,1-18.18,1.68,55.83,55.83,0,0,1-18.17-2.63,56.557,56.557,0,0,0-18.18-2.63,107.912,107.912,0,0,1-18.18-1.31,110.052,110.052,0,0,0-18.17-1.31c-9.09,0-13.71,2.86-18.18,5.63-4.68,2.9-9.09,5.63-18.18,5.63s-13.5-2.35-18.18-4.85-9.09-4.84-18.17-4.84c-10.31,0-14.4,1.79-20.22,4.71a67.956,67.956,0,0,1-14.79,5.73c-3.92,1.03-7.39,2.09-10.46,3.03-6.27,1.91-11.21,3.42-15.74,3.42-3.59,0-8.6-.82-15.54-7.18-5.56-5.1-5.33-9.32,1.1-19.63,3.22-5.18,6.87-11.05,6.87-18.1V100.12c-.01-4.17-.01-8.33-.01-16.67s-.23-12.38-.46-16.67c-.23-4.09-.47-8.33-.47-16.67,0-6.78-2.42-11.54-4.55-15.74-3.3-6.49-4.98-10.79,1.96-17.15,5.62-5.16,9.36-5.82,11.98-5.82a28.677,28.677,0,0,1,8.32,1.74,48.573,48.573,0,0,0,15.64,2.77c9.01,0,13.55.03,18.05.05h.12c4.55.03,9.09.05,18.18.05a46.587,46.587,0,0,1,18.17,3.21,47.4,47.4,0,0,0,18.18,3.2c9.09,0,13.71-2.38,18.17-4.68s9.09-4.69,18.18-4.69,13.71.35,18.17.69c4.69.35,9.1.68,18.18.68a85.786,85.786,0,0,0,18.17-1.66,87.67,87.67,0,0,1,18.18-1.66,100.893,100.893,0,0,1,18.17,1.43,99.957,99.957,0,0,0,18.18,1.44,77.686,77.686,0,0,0,18.17-1.85,79.275,79.275,0,0,1,18.18-1.84,45.708,45.708,0,0,1,18.18,3.29,46.062,46.062,0,0,0,18.17,3.3,67.318,67.318,0,0,0,18.18-2.18,67.262,67.262,0,0,1,18.17-2.17c9.08,0,13.69.11,18.16.23,4.68.12,9.09.23,18.19.23a107.564,107.564,0,0,0,18.18-1.33,106.226,106.226,0,0,1,18.17-1.33c9.09,0,13.5,2.38,18.18,4.9s9.09,4.92,18.18,4.92a36.43,36.43,0,0,0,18.17-4.37,36.443,36.443,0,0,1,18.18-4.37,66.734,66.734,0,0,1,18.18,2.2,66.335,66.335,0,0,0,18.18,2.2,81.841,81.841,0,0,1,18.17,1.77,80.567,80.567,0,0,0,18.18,1.77c7.51,0,13.09-2.92,18.01-5.5,3.76-1.98,7.31-3.84,10.95-3.84,2.03,0,5.23.46,9.55,4.42,4.24,3.89,4.25,7.06,3.88,9.11-.53,2.94-2.42,5.8-4.6,9.12-3.2,4.84-6.82,10.33-6.82,17.46,0,8.33,3.07,12.57,6.03,16.67s6.03,8.33,6.03,16.67A60.644,60.644,0,0,1,640.587,100.12Z"/>
      </g>
    </g>
  </g>
</svg>
