<svg xmlns="http://www.w3.org/2000/svg" width="652.627" height="171.7" viewBox="0 0 652.627 171.7">
  <defs>
    <style>
      .cls-1 {
        fill: #cc3619;
      }
    </style>
  </defs>
  <g id="Layer_2" data-name="Layer 2">
    <g id="FRAME_02_CONTENT" data-name="FRAME 02 CONTENT">
      <g>
        <g>
          <path class="cls-1" d="M111.776,130.1c-4.059-.123-26.568-.246-30.627-.738a1.844,1.844,0,0,1-2.706-1.722c0-4.55,0-9.1-.369-13.653-.123-1.23.123-2.829,1.476-3.075.738-.123,5.782-.615,6.519-.738.123-16.851-.737-33.826.246-50.676h-4.3a1.789,1.789,0,0,1-2.091-1.723c-.123-1.721,0-12.423,0-14.267a11.254,11.254,0,0,0-.123-2.091c-.738-1.354.369-2.706,1.968-2.706,5.412.123,10.824-.246,16.236-.615,7.626-.616,15.375-.985,23-1.108,3.445,0,6.766,0,10.209-.123a11.154,11.154,0,0,1,2.83.123,1.771,1.771,0,0,1,2.459,1.723c.247,6.026-.614,12.053-.246,18.2a1.742,1.742,0,0,1-1.106,1.722c-1.107,1.107-5.289,1.23-6.889,1.23-2.583.246-17.466.491-20.049.491.123,1.846.247,11.686.123,13.407,1.845,0,11.931-.737,13.776-.614a1.8,1.8,0,0,1,1.6,2.583c.124,4.551.124,9.1.37,13.776a1.993,1.993,0,0,1-.862,1.722c-.614.984-2.091,1.23-3.2,1.353-1.477.123-10.21.738-11.686.738-.123,1.968-.123,13.9,0,15.867,2.583,0,17.835.246,20.418,0,1.846-.123,3.691-.492,5.413-.738a1.76,1.76,0,0,1,2.09,1.845c.123,5.9.246,11.931-.123,17.836-.123,2.46-3.812,1.844-6.272,1.844C123.831,129.973,117.8,130.219,111.776,130.1Z"/>
          <path class="cls-1" d="M186.682,129.112a4.123,4.123,0,0,1-1.23,0,3.394,3.394,0,0,1-1.6-1.352c-3.567-6.889-6.273-14.146-9.349-21.157-3.074,7.011-5.78,14.391-9.347,21.157a3.4,3.4,0,0,1-1.6,1.352,4.962,4.962,0,0,1-1.353,0,110.9,110.9,0,0,1-14.269-.246,18.355,18.355,0,0,1-4.428-.614,2.463,2.463,0,0,1-.861-2.952c.738-1.231,5.412-9.349,6.15-10.579,2.091-3.936,12.669-25.707,14.391-29.889-.491-.985-3.074-7.257-3.566-8.241-1.723-4.059-3.813-8-5.782-11.931-3.567-7.012-6.887-14.269-10.455-21.279-.369-.739-.861-1.6-.615-2.337a1.77,1.77,0,0,1,1.353-2.829c.984,0,6.15-.123,7.011-.246,2.952-.37,5.781-.862,8.734-1.108,1.23-.123,4.8-.246,5.781.492.492.369,1.352.616,1.6,1.231.861,2.337,6.4,16.6,7.256,18.942.616-1.723,4.8-12.178,5.412-13.9.37-.862,1.6-4.674,2.092-5.412.615-.862,2.828-1.354,3.813-1.354,4.551-.123,8.979.861,13.53,1.231a47.4,47.4,0,0,1,5.9.246,1.709,1.709,0,0,1,.984,2.706,3.8,3.8,0,0,1-.615,2.214c-2.583,5.166-5.043,10.455-7.626,15.621-2.337,5.043-5.043,9.84-7.38,14.882-.616,1.354-4.182,9.718-4.8,11.071,1.23,3.2,9.84,20.91,11.439,23.985,1.845,3.691,3.813,7.38,5.781,10.947l3.321,5.536a2.3,2.3,0,0,1-1.23,3.075C202.3,129.235,189.757,129.235,186.682,129.112Z"/>
          <path class="cls-1" d="M229.731,128.62c-.615-.123-1.231.123-1.846,0a2.193,2.193,0,0,1-1.6-2.46c.123-4.428.123-8.733.123-13.038.369-17.958,1.23-35.916,1.844-53.874-2.46-.123-13.407-.862-15.867-.246-1.352.246-2.951-.985-2.829-2.214.123-1.723.492-11.563.492-13.284,0-.493,0-3.2.123-3.691.369-1.229,1.476-2.214,2.583-1.844,1.231.369,6.4,0,7.626,0,6.52,0,13.038.369,19.435.246,7.626-.123,15.375-.862,23-.616.492,0,3.2.123,3.813.246a3.136,3.136,0,0,1,1.968,1.968c.246,1.846-.123,11.317-.123,13.161-.123,2.091.123,5.289-1.968,5.536a3.848,3.848,0,0,1-1.23.615c-1.722.123-12.3.123-14.022.246-.246,4.92-.738,9.717-1.107,14.637,0,.246-.246,1.476-.246,1.6V77.7c-.615,16.236-.492,32.472.369,48.585,0,1.353-1.354,1.969-2.706,2.092C245.106,128.743,232.314,128.743,229.731,128.62Z"/>
          <path class="cls-1" d="M281.513,128.129c-1.353-.123-1.845-1.6-1.723-2.952.247-9.963-.122-19.8.247-29.767.615-13.161,1.23-26.445.861-39.607-3.321-.123-7.872,1.6-7.749-1.6.123-1.723,0-11.686,0-13.284a2.148,2.148,0,0,1,.492-1.477c1.6-2.091,7.872-2.091,10.455-2.091,5.412,0,10.824.123,16.113.123,6.4,0,13.161-.861,19.188,1.231,4.428,1.475,8.241,5.289,10.578,9.347a40.263,40.263,0,0,1,4.674,19.558,35.3,35.3,0,0,1-2.214,13.407,23.65,23.65,0,0,1-6.888,8.733,22.025,22.025,0,0,1,7.626,11.439c.616,2.337.492,13.407.492,15.867,0,1.23.124,8.119-.123,9.348-.246,1.354-2.583,1.846-3.936,1.969-4.674.737-9.594.122-14.268-.246-1.353-.123-2.829-.862-2.706-2.215a132.385,132.385,0,0,0,.123-15.621c0-3.074,0-10.824-2.46-12.669-1.476-1.23-7.872-1.968-9.717-2.214,0,3.813-.123,25.707.123,29.52a3,3,0,0,1-1.476,2.953C293.567,129.6,287.417,128.375,281.513,128.129Zm27.06-52.4a12.022,12.022,0,0,0,5.781-1.969c3.2-2.336,3.2-9.1,2.091-12.792a8.122,8.122,0,0,0-2.091-3.443,5.864,5.864,0,0,0-2.706-1.476,31.9,31.9,0,0,0-11.808-.985c0,2.583.123,17.836,0,20.419A41.568,41.568,0,0,0,308.573,75.73Z"/>
          <path class="cls-1" d="M378.067,130.1c-4.059-.123-26.569-.246-30.627-.738a1.844,1.844,0,0,1-2.706-1.722c0-4.55,0-9.1-.369-13.653-.123-1.23.123-2.829,1.475-3.075.739-.123,5.782-.615,6.52-.738.123-16.851-.738-33.826.246-50.676H348.3a1.79,1.79,0,0,1-2.092-1.723c-.123-1.721,0-12.423,0-14.267a11.254,11.254,0,0,0-.123-2.091c-.737-1.354.37-2.706,1.969-2.706,5.412.123,10.824-.246,16.235-.615,7.627-.616,15.376-.985,23-1.108,3.444,0,6.765,0,10.209-.123a11.148,11.148,0,0,1,2.829.123,1.772,1.772,0,0,1,2.46,1.723c.246,6.026-.615,12.053-.246,18.2a1.743,1.743,0,0,1-1.107,1.722c-1.107,1.107-5.289,1.23-6.888,1.23-2.583.246-17.466.491-20.049.491.123,1.846.246,11.686.123,13.407,1.845,0,11.931-.737,13.776-.614A1.8,1.8,0,0,1,390,75.73c.123,4.551.123,9.1.369,13.776a2,2,0,0,1-.861,1.722c-.615.984-2.091,1.23-3.2,1.353-1.476.123-10.209.738-11.685.738-.123,1.968-.123,13.9,0,15.867,2.583,0,17.835.246,20.418,0,1.845-.123,3.69-.492,5.412-.738a1.761,1.761,0,0,1,2.091,1.845c.123,5.9.246,11.931-.123,17.836-.123,2.46-3.813,1.844-6.273,1.844C390.121,129.973,384.094,130.219,378.067,130.1Z"/>
          <path class="cls-1" d="M418.163,129.112c-.37,0-2.214-.246-2.706-.246a1.767,1.767,0,0,1-2.091-1.353,18.173,18.173,0,0,1,.123-2.583c1.23-22.386.369-44.649.615-67.036.123-2.46.738-13.284,0-15.744a1.682,1.682,0,0,1,.246-1.722,1.757,1.757,0,0,1,2.337-1.721,1.8,1.8,0,0,1,.492.246c2.952.737,19.557-1.723,22.386-.738a4,4,0,0,1,1.6,1.229c.492.861,1.845,4.921,2.214,5.658,2.583,7.749,5.043,15.5,7.5,23.247,2.829,8.857,6.15,17.467,9.1,26.323,3.2-9.471,6.642-18.819,9.717-28.29,2.829-8.979,5.535-18.081,8.979-26.815a3.186,3.186,0,0,1,2.583-1.845c2.214-.123,14.023.862,16.36.985.983,0,4.427.369,5.412-.246a1.76,1.76,0,0,1,2.583,1.6,2.769,2.769,0,0,1,.246,2.214C505.494,44,505.74,53.1,505.74,54.82c.491,21.648-.369,43.173.491,64.821,0,.984.493,6.4.37,7.38a1.811,1.811,0,0,1-2.338,1.6c-.983.246-6.027.369-7.011.492a89.033,89.033,0,0,1-14.022.369,1.752,1.752,0,0,1-1.6-1.106,1.857,1.857,0,0,1-1.107-1.723c.615-13.53.369-27.183.123-40.713-1.353,3.444-10.086,24.231-11.562,27.675a4.92,4.92,0,0,1-1.23,2.214A1.7,1.7,0,0,1,466.5,117.3c-.984.247-4.428-.123-5.166.37-.861.737-2.337.246-3.567.123-.738-.123-3.936,0-4.551-.246a1.964,1.964,0,0,1-1.107-1.477c0-.123-.492-.615-.615-.738-1.6-3.567-10.7-25.461-12.177-29.151-.246,13.53-.492,27.183.123,40.713a1.6,1.6,0,0,1-1.107,1.722,1.96,1.96,0,0,1-1.476,1.107C430.586,130.219,424.436,129.481,418.163,129.112Z"/>
          <path class="cls-1" d="M551.125,130.1c-4.059-.123-26.568-.246-30.627-.738a1.844,1.844,0,0,1-2.706-1.722c0-4.55,0-9.1-.369-13.653-.123-1.23.123-2.829,1.476-3.075.738-.123,5.781-.615,6.519-.738.123-16.851-.738-33.826.247-50.676h-4.306a1.789,1.789,0,0,1-2.091-1.723c-.123-1.721,0-12.423,0-14.267a11.254,11.254,0,0,0-.123-2.091c-.738-1.354.369-2.706,1.968-2.706,5.412.123,10.824-.246,16.237-.615,7.626-.616,15.375-.985,23-1.108,3.443,0,6.765,0,10.209-.123a11.148,11.148,0,0,1,2.829.123,1.772,1.772,0,0,1,2.46,1.723c.246,6.026-.615,12.053-.247,18.2a1.742,1.742,0,0,1-1.106,1.722c-1.107,1.107-5.289,1.23-6.888,1.23-2.583.246-17.466.491-20.049.491.123,1.846.246,11.686.123,13.407,1.844,0,11.931-.737,13.775-.614a1.8,1.8,0,0,1,1.6,2.583c.123,4.551.123,9.1.369,13.776a1.993,1.993,0,0,1-.862,1.722c-.614.984-2.09,1.23-3.2,1.353-1.476.123-10.209.738-11.685.738-.123,1.968-.123,13.9,0,15.867,2.583,0,17.835.246,20.418,0,1.845-.123,3.69-.492,5.412-.738a1.76,1.76,0,0,1,2.09,1.845c.124,5.9.247,11.931-.122,17.836-.123,2.46-3.814,1.844-6.273,1.844C563.18,129.973,557.153,130.219,551.125,130.1Z"/>
        </g>
        <path class="cls-1" d="M648.547,116.79a50.7,50.7,0,0,1,1.75-14.29,69.96,69.96,0,0,0,2.33-19.05c0-11.58-4.58-17.91-7.93-22.53-2.66-3.69-4.13-5.71-4.13-10.81,0-4.13,2.39-7.76,5.16-11.96,2.56-3.88,5.21-7.89,6.1-12.86.84-4.64.31-11.58-6.96-18.24C639.7,2.31,634.357,0,628.557,0c-6.1,0-11.15,2.65-15.6,4.98s-8.32,4.36-13.36,4.36a71.774,71.774,0,0,1-16.26-1.58,91.421,91.421,0,0,0-20.09-1.96,56.37,56.37,0,0,1-15.83-1.92,76.256,76.256,0,0,0-20.53-2.48,46.086,46.086,0,0,0-22.51,5.36c-4.08,1.96-7.03,3.38-13.84,3.38-6.56,0-9.29-1.48-13.43-3.71C472.067,3.71,465.8.32,454.177.32a116.311,116.311,0,0,0-19.63,1.44,98.343,98.343,0,0,1-16.72,1.22c-8.96,0-13.31-.11-17.92-.23-4.53-.11-9.21-.23-18.43-.23a76.759,76.759,0,0,0-20.5,2.45,57.393,57.393,0,0,1-15.85,1.9,36.222,36.222,0,0,1-14.77-2.7A55.431,55.431,0,0,0,308.777.28a88.353,88.353,0,0,0-20.16,2.04,68.7,68.7,0,0,1-16.19,1.65,91.212,91.212,0,0,1-16.62-1.31,110.21,110.21,0,0,0-19.73-1.56,97.174,97.174,0,0,0-19.97,1.82,76.341,76.341,0,0,1-16.38,1.5c-8.72,0-12.95-.32-17.43-.65-4.65-.35-9.46-.72-18.92-.72-11.51,0-17.75,3.22-22.76,5.8-4.02,2.07-6.93,3.57-13.59,3.57a37.374,37.374,0,0,1-14.85-2.63,56.454,56.454,0,0,0-21.5-3.78c-9.06,0-13.59-.02-18.12-.05-4.56-.02-9.12-.05-18.23-.05a39.287,39.287,0,0,1-12.68-2.32A36.941,36.941,0,0,0,30.367,1.4c-6.5,0-12.45,2.68-18.74,8.45-12.88,11.82-7.18,23.03-4.12,29.05,1.87,3.66,3.47,6.83,3.47,11.21,0,8.61.25,12.99.48,17.23.23,4.14.45,8.06.45,16.11,0,8.34,0,12.51.01,16.68v16.66c0,4.19-2.6,8.38-5.36,12.81-4.39,7.05-12.57,20.18.64,32.29,7.29,6.69,14.38,9.81,22.29,9.81,6.03,0,11.88-1.79,18.65-3.85,2.98-.91,6.36-1.94,10.09-2.93a77.224,77.224,0,0,0,16.74-6.46c4.68-2.36,7.27-3.65,15.73-3.65,6.59,0,9.32,1.46,13.47,3.67,5.03,2.68,11.29,6.02,22.88,6.02,11.94,0,18.32-3.95,23.44-7.13,4.02-2.48,6.67-4.13,12.92-4.13a100.083,100.083,0,0,1,16.75,1.21,118.784,118.784,0,0,0,19.6,1.41,46.77,46.77,0,0,1,15.4,2.24,66.054,66.054,0,0,0,20.95,3.02,95.465,95.465,0,0,0,19.99-1.85,76.06,76.06,0,0,1,16.36-1.51,51.163,51.163,0,0,1,15.61,2.08,70.878,70.878,0,0,0,20.74,2.74,151.827,151.827,0,0,0,19.26-1.06,134.3,134.3,0,0,1,17.09-.93,67.8,67.8,0,0,0,20.87-2.91,48.362,48.362,0,0,1,15.48-2.18c6.72,0,9.64,1.47,13.69,3.5a48.681,48.681,0,0,0,45.28.09c4.06-2.02,6.99-3.47,13.74-3.47a166.239,166.239,0,0,0,19.15-.95,148.267,148.267,0,0,1,17.19-.85c6.13,0,8.61,1.62,12.73,4.29,4.89,3.17,11.57,7.51,23.62,7.51a50.286,50.286,0,0,0,22.08-4.63,30.292,30.292,0,0,1,14.27-3.06,70.786,70.786,0,0,1,16.25,1.6,91.336,91.336,0,0,0,20.11,1.97,43.871,43.871,0,0,1,12.45,1.97,38.834,38.834,0,0,0,10.37,1.77c6.71,0,12.67-2.72,19.31-8.81,12.43-11.41,10.19-20.87,8.38-28.48A44.9,44.9,0,0,1,648.547,116.79Zm-7.96-16.67a60.527,60.527,0,0,0-2.04,16.67,55.069,55.069,0,0,0,1.85,13.47c1.63,6.84,2.7,11.36-5.41,18.8-5.93,5.44-9.67,6.18-12.55,6.18a29.98,29.98,0,0,1-7.76-1.43,53.971,53.971,0,0,0-15.06-2.31,81.269,81.269,0,0,1-18.18-1.78,80.238,80.238,0,0,0-18.18-1.79,39.891,39.891,0,0,0-18.17,3.85,40.459,40.459,0,0,1-18.18,3.84c-9.08,0-13.7-3-18.17-5.9-4.68-3.03-9.09-5.9-18.18-5.9a159.359,159.359,0,0,0-18.17.9,157.77,157.77,0,0,1-18.17.9c-9.09,0-13.71,2.29-18.18,4.51s-9.09,4.5-18.17,4.5-13.71-2.32-18.18-4.56-9.09-4.57-18.18-4.57a58.249,58.249,0,0,0-18.17,2.54,57.91,57.91,0,0,1-18.18,2.55,143.984,143.984,0,0,0-18.17.99,140.568,140.568,0,0,1-18.18,1,61.046,61.046,0,0,1-18.18-2.41,61.248,61.248,0,0,0-18.17-2.41,85.413,85.413,0,0,0-18.17,1.68,85.961,85.961,0,0,1-18.18,1.68,55.83,55.83,0,0,1-18.17-2.63,56.557,56.557,0,0,0-18.18-2.63,107.912,107.912,0,0,1-18.18-1.31,110.052,110.052,0,0,0-18.17-1.31c-9.09,0-13.71,2.86-18.18,5.63-4.68,2.9-9.09,5.63-18.18,5.63s-13.5-2.35-18.18-4.85-9.09-4.84-18.17-4.84c-10.31,0-14.4,1.79-20.22,4.71a67.956,67.956,0,0,1-14.79,5.73c-3.92,1.03-7.39,2.09-10.46,3.03-6.27,1.91-11.21,3.42-15.74,3.42-3.59,0-8.6-.82-15.54-7.18-5.56-5.1-5.33-9.32,1.1-19.63,3.22-5.18,6.87-11.05,6.87-18.1V100.12c-.01-4.17-.01-8.33-.01-16.67s-.23-12.38-.46-16.67c-.23-4.09-.47-8.33-.47-16.67,0-6.78-2.42-11.54-4.55-15.74-3.3-6.49-4.98-10.79,1.96-17.15,5.62-5.16,9.36-5.82,11.98-5.82a28.677,28.677,0,0,1,8.32,1.74,48.573,48.573,0,0,0,15.64,2.77c9.01,0,13.55.03,18.05.05h.12c4.55.03,9.09.05,18.18.05a46.587,46.587,0,0,1,18.17,3.21,47.4,47.4,0,0,0,18.18,3.2c9.09,0,13.71-2.38,18.17-4.68s9.09-4.69,18.18-4.69,13.71.35,18.17.69c4.69.35,9.1.68,18.18.68a85.786,85.786,0,0,0,18.17-1.66,87.67,87.67,0,0,1,18.18-1.66,100.893,100.893,0,0,1,18.17,1.43,99.957,99.957,0,0,0,18.18,1.44,77.686,77.686,0,0,0,18.17-1.85,79.275,79.275,0,0,1,18.18-1.84,45.708,45.708,0,0,1,18.18,3.29,46.062,46.062,0,0,0,18.17,3.3,67.318,67.318,0,0,0,18.18-2.18,67.262,67.262,0,0,1,18.17-2.17c9.08,0,13.69.11,18.16.23,4.68.12,9.09.23,18.19.23a107.564,107.564,0,0,0,18.18-1.33,106.226,106.226,0,0,1,18.17-1.33c9.09,0,13.5,2.38,18.18,4.9s9.09,4.92,18.18,4.92a36.43,36.43,0,0,0,18.17-4.37,36.443,36.443,0,0,1,18.18-4.37,66.734,66.734,0,0,1,18.18,2.2,66.335,66.335,0,0,0,18.18,2.2,81.841,81.841,0,0,1,18.17,1.77,80.567,80.567,0,0,0,18.18,1.77c7.51,0,13.09-2.92,18.01-5.5,3.76-1.98,7.31-3.84,10.95-3.84,2.03,0,5.23.46,9.55,4.42,4.24,3.89,4.25,7.06,3.88,9.11-.53,2.94-2.42,5.8-4.6,9.12-3.2,4.84-6.82,10.33-6.82,17.46,0,8.33,3.07,12.57,6.03,16.67s6.03,8.33,6.03,16.67A60.644,60.644,0,0,1,640.587,100.12Z"/>
      </g>
    </g>
  </g>
</svg>
